<?xml version="1.0" encoding="utf-8" ?>
<svg xmlns="http://www.w3.org/2000/svg" xmlns:xlink="http://www.w3.org/1999/xlink" width="1024" height="1024">
	<path fill="#FFD800" transform="scale(2 2)" d="M0 0L0 512L512 512L512 0L0 0Z"/>
	<path fill="#7902AA" transform="scale(2 2)" d="M244.601 123.847C228.966 111.113 235.297 87.9956 254.579 86.1202C255.855 86.0116 257.183 86.1147 258.448 86.2949C277.511 89.0104 282.273 112.681 267.474 123.644C267.018 129.402 267.289 140.121 267.716 145.734C275.008 149.895 281.94 154.68 289.351 158.867C299.448 150.333 312.481 142.964 323.276 134.881C324.229 111.967 355.508 106.855 363.143 127.975C369.298 145.003 351.809 161.97 336.307 154.524C334.168 156.273 331.82 157.797 329.548 159.368L319.001 166.583C315.876 168.694 312.891 171.036 309.812 173.218C309.717 188.701 310.041 204.205 309.732 219.684L325.007 230.061C327.731 231.937 330.381 233.902 333.16 235.7C344.619 228.208 361.02 235.532 363.956 249.197C366.358 260.38 358.972 271.795 347.751 274.084C336.224 276.436 325.521 268.263 323.277 257.036C312.79 251.037 302.189 242.961 292.023 236.27C287.457 239.254 272.002 249.876 267.492 251.488L267.507 286.831C267.505 293.911 265.726 300.585 257.566 301.742C251.53 301.896 245.898 298.719 244.708 292.374C244.371 290.575 244.525 288.614 244.529 286.787L244.536 262.832C244.536 259.15 244.478 255.469 244.675 251.792C236.829 247.637 227.08 241.114 219.672 236.118C211.375 242.798 197.835 251.478 188.499 257.164C185.935 271.336 170.561 279.105 157.735 271.44C147.89 265.556 144.587 252.418 150.614 242.611C156.364 233.254 169.266 229.731 178.726 235.626C184.036 232.151 189.272 228.514 194.509 224.928C196.942 223.262 199.292 221.235 201.968 219.975C202.234 217.796 202.172 215.609 202.17 213.418L202.166 205.08C202.166 194.517 202.004 183.93 202.317 173.372C193.839 166.644 184.485 160.971 175.785 154.523C168.882 156.724 162.799 156.849 156.476 152.513C147.185 146.14 144.828 132.56 151.209 123.327C161.685 108.17 184.117 113.553 188.252 131.206C188.515 132.327 188.519 133.505 188.717 134.64L188.741 134.769C196.159 140.781 205.303 146.566 213.204 151.971C215.909 153.822 220.506 156.605 222.737 158.738C226.992 156.561 232.48 153.066 236.525 150.51C239.071 148.901 241.609 147.042 244.388 145.86C244.126 143.407 244.337 140.792 244.37 138.325L244.601 123.847ZM255.919 166.382C246.107 172.704 235.808 178.863 225.808 184.881C226.261 193.917 225.366 203.355 226.022 212.206C228.22 213.113 231.554 215.652 233.733 216.993L248.525 226.22C249.233 226.668 255.932 230.996 255.951 231.002C258.81 228.792 262.254 227.063 265.312 225.116L276.876 217.69C279.751 215.843 282.807 213.59 286.021 212.387C286.14 204.18 285.332 192.862 286.197 185C280.587 181.659 275.093 178.133 269.493 174.775L261.097 169.681C259.36 168.617 257.553 167.599 255.919 166.382Z"/>
	<path fill="#7902AA" transform="scale(2 2)" d="M87.898 439.021C82.3202 439.021 77.8617 437.828 74.5225 435.443C71.1832 433.058 68.7613 429.59 67.2568 425.04C65.7523 420.49 65 415.022 65 408.637L65 378.803C65 372.272 65.6789 366.712 67.0366 362.125C68.3943 357.538 70.8162 354.034 74.3023 351.612C77.7884 349.19 82.6505 347.979 88.8888 347.979C94.4665 347.979 98.9617 348.915 102.374 350.786C105.787 352.658 108.264 355.52 109.805 359.373C111.346 363.226 112.117 368.088 112.117 373.96L112.117 377.262L100.448 377.262L100.448 374.51C100.448 370.62 100.191 367.446 99.6772 364.988C99.1635 362.529 98.1176 360.694 96.5398 359.483C94.9619 358.272 92.485 357.667 89.1089 357.667C85.4394 357.667 82.779 358.511 81.1277 360.199C79.4764 361.887 78.4489 364.18 78.0452 367.079C77.6416 369.978 77.4398 373.262 77.4398 376.932L77.4398 409.958C77.4398 414.215 77.7516 417.774 78.3755 420.636C78.9994 423.499 80.1919 425.627 81.9533 427.021C83.7147 428.416 86.21 429.113 89.4392 429.113C92.6684 429.113 95.1637 428.342 96.9251 426.801C98.6865 425.26 99.8974 422.985 100.558 419.976C101.218 416.967 101.549 413.224 101.549 408.747L101.549 402.582L90.2098 402.582L90.2098 393.775L112.778 393.775L112.778 437.92L104.961 437.92L103.75 427.682C102.576 430.984 100.741 433.7 98.2461 435.828C95.7508 437.957 92.3014 439.021 87.898 439.021ZM134.134 438.801C131.639 438.801 129.437 438.085 127.529 436.654C125.621 435.223 124.116 433.388 123.016 431.15C121.915 428.911 121.364 426.544 121.364 424.049C121.364 420.086 122.025 416.747 123.346 414.031C124.667 411.316 126.483 409.022 128.795 407.151C131.107 405.279 133.786 403.646 136.831 402.252C139.877 400.857 143.088 399.5 146.464 398.179L146.464 393.665C146.464 391.096 146.317 388.968 146.024 387.28C145.73 385.592 145.125 384.326 144.207 383.482C143.29 382.638 141.914 382.216 140.079 382.216C138.464 382.216 137.162 382.583 136.171 383.317C135.18 384.051 134.465 385.097 134.024 386.454C133.584 387.812 133.364 389.408 133.364 391.243L133.364 394.436L121.695 393.995C121.841 386.95 123.456 381.757 126.538 378.418C129.621 375.079 134.391 373.409 140.85 373.409C147.161 373.409 151.638 375.134 154.28 378.583C156.922 382.033 158.243 387.023 158.243 393.555L158.243 422.618C158.243 424.599 158.298 426.508 158.408 428.342C158.518 430.177 158.665 431.884 158.849 433.461C159.032 435.039 159.197 436.525 159.344 437.92L148.556 437.92C148.335 436.746 148.06 435.259 147.73 433.461C147.4 431.663 147.161 430.03 147.014 428.563C146.28 431.058 144.868 433.388 142.776 435.553C140.684 437.718 137.804 438.801 134.134 438.801ZM138.758 428.673C139.932 428.673 141.033 428.342 142.061 427.682C143.088 427.021 144.005 426.269 144.813 425.425C145.62 424.581 146.17 423.902 146.464 423.388L146.464 405.334C144.629 406.362 142.905 407.389 141.29 408.417C139.675 409.444 138.263 410.527 137.052 411.664C135.841 412.802 134.887 414.086 134.189 415.517C133.492 416.948 133.144 418.581 133.144 420.416C133.144 422.985 133.621 425.003 134.575 426.471C135.529 427.939 136.923 428.673 138.758 428.673ZM169.582 437.92L169.582 374.29L180.481 374.29L180.481 380.345C182.609 377.923 184.958 376.125 187.526 374.95C190.095 373.776 192.737 373.189 195.452 373.189C197.801 373.189 199.911 373.776 201.782 374.95C203.654 376.125 204.994 378.216 205.801 381.225C208.076 378.437 210.553 376.4 213.231 375.116C215.91 373.831 218.717 373.189 221.653 373.189C223.708 373.189 225.58 373.684 227.267 374.675C228.955 375.666 230.314 377.244 231.341 379.409C232.368 381.574 232.882 384.418 232.882 387.941L232.882 437.92L222.093 437.92L222.093 388.711C222.093 385.629 221.598 383.556 220.607 382.491C219.616 381.427 218.277 380.895 216.589 380.895C214.974 380.895 213.286 381.354 211.525 382.271C209.764 383.189 208.149 384.455 206.681 386.069C206.681 386.363 206.681 386.656 206.681 386.95C206.681 387.243 206.681 387.574 206.681 387.941L206.681 437.92L195.893 437.92L195.893 388.711C195.893 385.629 195.397 383.556 194.407 382.491C193.416 381.427 192.076 380.895 190.388 380.895C188.774 380.895 187.105 381.354 185.38 382.271C183.654 383.189 182.022 384.455 180.481 386.069L180.481 437.92L169.582 437.92ZM262.055 438.801C257.065 438.801 253.212 437.828 250.496 435.883C247.78 433.938 245.891 431.076 244.826 427.297C243.762 423.517 243.23 418.875 243.23 413.371L243.23 398.839C243.23 393.188 243.78 388.491 244.881 384.748C245.982 381.005 247.909 378.18 250.661 376.271C253.413 374.363 257.211 373.409 262.055 373.409C267.413 373.409 271.357 374.51 273.889 376.712C276.421 378.914 278.091 382.088 278.898 386.234C279.705 390.381 280.109 395.353 280.109 401.151L280.109 406.325L255.009 406.325L255.009 419.095C255.009 421.664 255.248 423.755 255.725 425.37C256.201 426.985 256.972 428.177 258.037 428.948C259.101 429.718 260.477 430.104 262.165 430.104C263.926 430.104 265.266 429.682 266.183 428.838C267.1 427.994 267.724 426.783 268.054 425.205C268.385 423.627 268.55 421.774 268.55 419.646L268.55 415.793L279.999 415.793L279.999 418.214C279.999 424.599 278.641 429.627 275.926 433.296C273.21 436.966 268.586 438.801 262.055 438.801ZM255.009 399.94L268.55 399.94L268.55 394.216C268.55 391.573 268.403 389.353 268.11 387.555C267.816 385.757 267.21 384.399 266.293 383.482C265.376 382.565 263.926 382.106 261.945 382.106C260.037 382.106 258.587 382.546 257.596 383.427C256.605 384.308 255.926 385.794 255.56 387.886C255.193 389.977 255.009 392.858 255.009 396.527L255.009 399.94ZM291.558 437.92L293.209 348.75L305.429 348.75L321.171 421.077L337.024 348.75L349.133 348.75L350.784 437.92L340.767 437.92L339.776 373.189L324.694 437.92L317.648 437.92L302.677 373.189L301.686 437.92L291.558 437.92ZM380.948 438.801C376.251 438.801 372.545 437.846 369.829 435.938C367.114 434.03 365.187 431.315 364.05 427.792C362.913 424.269 362.344 420.123 362.344 415.352L362.344 396.858C362.344 392.087 362.913 387.941 364.05 384.418C365.187 380.895 367.114 378.18 369.829 376.271C372.545 374.363 376.251 373.409 380.948 373.409C385.646 373.409 389.333 374.363 392.012 376.271C394.69 378.18 396.599 380.895 397.736 384.418C398.874 387.941 399.443 392.087 399.443 396.858L399.443 415.352C399.443 420.123 398.874 424.269 397.736 427.792C396.599 431.315 394.69 434.03 392.012 435.938C389.333 437.846 385.646 438.801 380.948 438.801ZM380.948 430.104C383.224 430.104 384.82 429.443 385.737 428.122C386.654 426.801 387.204 425.058 387.388 422.893C387.572 420.728 387.663 418.471 387.663 416.123L387.663 396.197C387.663 393.775 387.572 391.5 387.388 389.372C387.204 387.243 386.654 385.5 385.737 384.143C384.82 382.785 383.224 382.106 380.948 382.106C378.673 382.106 377.059 382.785 376.104 384.143C375.15 385.5 374.582 387.243 374.398 389.372C374.214 391.5 374.123 393.775 374.123 396.197L374.123 416.123C374.123 418.471 374.214 420.728 374.398 422.893C374.582 425.058 375.15 426.801 376.104 428.122C377.059 429.443 378.673 430.104 380.948 430.104ZM424.983 438.801C419.625 438.801 415.625 436.837 412.983 432.911C410.341 428.984 409.02 422.324 409.02 412.93L409.02 400.601C409.02 395.757 409.424 391.262 410.231 387.115C411.038 382.968 412.562 379.647 414.8 377.152C417.038 374.657 420.323 373.409 424.652 373.409C426.78 373.409 428.726 373.886 430.487 374.84C432.248 375.794 433.826 376.969 435.221 378.363L435.221 348.75L447 348.75L447 437.92L435.221 437.92L435.221 433.847C433.826 435.314 432.303 436.507 430.652 437.424C429.001 438.342 427.111 438.801 424.983 438.801ZM427.955 429.553C429.056 429.553 430.231 429.352 431.478 428.948C432.725 428.544 433.973 427.939 435.221 427.131L435.221 385.409C434.194 384.675 433.055 384.033 431.808 383.482C430.561 382.932 429.202 382.656 427.735 382.656C425.019 382.656 423.185 383.959 422.231 386.565C421.276 389.17 420.799 392.307 420.799 395.977L420.799 413.921C420.799 416.857 420.965 419.517 421.295 421.902C421.625 424.288 422.304 426.159 423.331 427.517C424.359 428.874 425.9 429.553 427.955 429.553Z"/>
</svg>
